<svg width="24" height="24" viewBox="0 0 24 24" fill="none" xmlns="http://www.w3.org/2000/svg">
<g clip-path="url(#clip0_2399_2754)">
<path d="M18.348 7.23C17.037 4.079 13.953 2 10.5 2C5.813 2 2 5.813 2 10.5C2 11.051 2.053 11.597 2.157 12.133C0.81 13.165 0 14.779 0 16.5C0 19.532 2.243 22 5 22H16.5C20.636 22 24 18.636 24 14.5C24 11.033 21.656 8.064 18.348 7.23ZM15.293 14.292L13 11.999V17.999H11V11.999L8.707 14.292L7.293 12.878L10.586 9.585C11.365 8.806 12.635 8.806 13.414 9.585L16.707 12.878L15.293 14.292Z" fill="#64318A"/>
</g>
<defs>
<clipPath id="clip0_2399_2754">
<rect width="24" height="24" fill="white"/>
</clipPath>
</defs>
</svg>
