<svg width="15" height="15" viewBox="0 0 15 15" fill="none" xmlns="http://www.w3.org/2000/svg">
<g clip-path="url(#clip0_2374_2535)">
<path d="M0.943785 3.79939C1.0669 3.79923 1.18883 3.82344 1.30253 3.87064C1.41624 3.91784 1.51948 3.98709 1.60628 4.07439L6.40191 8.86939C6.54701 9.01453 6.71927 9.12966 6.90887 9.20821C7.09847 9.28675 7.30168 9.32718 7.50691 9.32718C7.71213 9.32718 7.91535 9.28675 8.10495 9.20821C8.29455 9.12966 8.46681 9.01453 8.61191 8.86939L13.4 4.08064C13.4865 3.9911 13.59 3.91968 13.7043 3.87055C13.8187 3.82141 13.9417 3.79555 14.0662 3.79447C14.1907 3.79339 14.3142 3.81711 14.4294 3.86425C14.5446 3.91138 14.6493 3.981 14.7373 4.06902C14.8253 4.15705 14.8949 4.26172 14.9421 4.37693C14.9892 4.49215 15.0129 4.6156 15.0118 4.74008C15.0107 4.86456 14.9849 4.98758 14.9358 5.10196C14.8866 5.21634 14.8152 5.31978 14.7257 5.40627L9.93753 10.195C9.29248 10.8389 8.41831 11.2005 7.50691 11.2005C6.59551 11.2005 5.72134 10.8389 5.07628 10.195L0.28066 5.40002C0.149462 5.2689 0.0601057 5.10182 0.0238969 4.91991C-0.012312 4.73799 0.00625437 4.54943 0.0772465 4.37807C0.148239 4.20671 0.268466 4.06026 0.422715 3.95725C0.576964 3.85424 0.758303 3.79931 0.943785 3.79939Z" fill="#ABACB2"/>
</g>
<defs>
<clipPath id="clip0_2374_2535">
<rect width="15" height="15" fill="white"/>
</clipPath>
</defs>
</svg>
