<svg width="24" height="24" viewBox="0 0 24 24" fill="none" xmlns="http://www.w3.org/2000/svg">
<g clip-path="url(#clip0_2399_2730)">
<path d="M0.290658 8.552C0.0751807 8.15232 -0.0246469 7.7005 0.00237884 7.24724C0.0294046 6.79399 0.182214 6.35723 0.443658 5.98599C0.870917 5.35911 1.4431 4.84456 2.11166 4.48599L9.61266 0.581994C10.3499 0.198625 11.1687 -0.00152588 11.9997 -0.00152588C12.8306 -0.00152588 13.6494 0.198625 14.3867 0.581994L21.8867 4.48899C22.5552 4.84756 23.1274 5.36211 23.5547 5.98899C23.8161 6.36023 23.9689 6.79699 23.9959 7.25025C24.023 7.7035 23.9231 8.15532 23.7077 8.555C23.4757 8.99382 23.1277 9.3606 22.7017 9.61538C22.2758 9.87017 21.788 10.0032 21.2917 10H2.70766C2.21082 10.0031 1.72266 9.8697 1.29645 9.61436C0.87023 9.35902 0.522317 8.99154 0.290658 8.552ZM22.9997 22C22.9997 21.4696 22.7889 20.9609 22.4139 20.5858C22.0388 20.2107 21.5301 20 20.9997 20V12H18.9997V20H15.9997V12H13.9997V20H9.99966V12H7.99966V20H4.99966V12H2.99966V20C2.46923 20 1.96052 20.2107 1.58545 20.5858C1.21037 20.9609 0.999659 21.4696 0.999659 22C0.734442 22 0.480088 22.1054 0.292552 22.2929C0.105015 22.4804 -0.000341587 22.7348 -0.000341587 23C-0.000341587 23.2652 0.105015 23.5196 0.292552 23.7071C0.480088 23.8946 0.734442 24 0.999659 24H22.9997C23.2649 24 23.5192 23.8946 23.7068 23.7071C23.8943 23.5196 23.9997 23.2652 23.9997 23C23.9997 22.7348 23.8943 22.4804 23.7068 22.2929C23.5192 22.1054 23.2649 22 22.9997 22Z" fill="#64318A"/>
</g>
<defs>
<clipPath id="clip0_2399_2730">
<rect width="24" height="24" fill="white"/>
</clipPath>
</defs>
</svg>
