<svg width="24" height="24" viewBox="0 0 24 24" fill="none" xmlns="http://www.w3.org/2000/svg">
<g clip-path="url(#clip0_2368_2546)">
<path d="M0.291147 8.552C0.075669 8.15232 -0.0241587 7.7005 0.00286712 7.24724C0.0298929 6.79399 0.182703 6.35723 0.444147 5.98599C0.871405 5.35911 1.44359 4.84456 2.11215 4.48599L9.61315 0.581994C10.3504 0.198625 11.1692 -0.00152588 12.0001 -0.00152588C12.8311 -0.00152588 13.6499 0.198625 14.3871 0.581994L21.8871 4.48899C22.5557 4.84756 23.1279 5.36211 23.5551 5.98899C23.8166 6.36023 23.9694 6.79699 23.9964 7.25025C24.0235 7.7035 23.9236 8.15532 23.7081 8.555C23.4762 8.99382 23.1282 9.3606 22.7022 9.61538C22.2762 9.87017 21.7885 10.0032 21.2921 10H2.70815C2.21131 10.0031 1.72315 9.8697 1.29694 9.61436C0.870718 9.35902 0.522805 8.99154 0.291147 8.552ZM23.0001 22C23.0001 21.4696 22.7894 20.9609 22.4144 20.5858C22.0393 20.2107 21.5306 20 21.0001 20V12H19.0001V20H16.0001V12H14.0001V20H10.0001V12H8.00015V20H5.00015V12H3.00015V20C2.46971 20 1.96101 20.2107 1.58593 20.5858C1.21086 20.9609 1.00015 21.4696 1.00015 22C0.73493 22 0.480576 22.1054 0.29304 22.2929C0.105504 22.4804 0.000146694 22.7348 0.000146694 23C0.000146694 23.2652 0.105504 23.5196 0.29304 23.7071C0.480576 23.8946 0.73493 24 1.00015 24H23.0001C23.2654 24 23.5197 23.8946 23.7073 23.7071C23.8948 23.5196 24.0002 23.2652 24.0002 23C24.0002 22.7348 23.8948 22.4804 23.7073 22.2929C23.5197 22.1054 23.2654 22 23.0001 22Z" fill="#D9D9D9"/>
</g>
<defs>
<clipPath id="clip0_2368_2546">
<rect width="24" height="24" fill="white"/>
</clipPath>
</defs>
</svg>
